#format: frame checksums
#version: 2
#hash: MD5
#tb 0: 1001/30000
#media_type 0: video
#codec_id 0: rawvideo
#dimensions 0: 32x16
#sar 0: 1/1
#stream#, dts,        pts, duration,     size, hash
0,          0,          0,        1,      768, 7c2818db2632e5c5beee17e7105d9209
0,          1,          1,        1,      768, cead72bd22995e98b54a91c7b4a20975
0,          2,          2,        1,      768, eb6baee5d65d778052c88ba5db2f9174
0,          3,          3,        1,      768, 1f5f38e89e985e9e4172446de05e91fd
0,          4,          4,        1,      768, 57b57ffcb03627942fc5868324a10feb
0,          5,          5,        1,      768, 4b4066a452d8e9cd687cd611f5d9cb88
0,          6,          6,        1,      768, 113e5069b2a4d2c2e802b72649eb435d
0,          7,          7,        1,      768, e176bb233f76f9fd4c55d62d53487b60
0,          8,          8,        1,      768, f2ff3def712a846ea7b678bd9078e32b
0,          9,          9,        1,      768, 21007ed1c727c5ccc5955188a2cec276
